<svg xmlns="http://www.w3.org/2000/svg" viewBox="0 0 16 16"><defs><style>.a{fill:none;}</style></defs><path class="a" d="M8,1.5A6.5,6.5,0,1,0,14.5,8,6.5,6.5,0,0,0,8,1.5Zm4,10.43H10.31l.09-6.12L8.48,9.28h-1L5.6,5.79l.08,6.14H4V4.07H6.34l1.72,3.1,1.73-3.1H12Z"/><path d="M8,0a8,8,0,1,0,8,8A8,8,0,0,0,8,0ZM8,14.5A6.5,6.5,0,1,1,14.5,8,6.5,6.5,0,0,1,8,14.5Z"/><polygon points="8.06 7.17 6.34 4.07 4 4.07 4 11.93 5.68 11.93 5.6 5.79 7.53 9.28 8.48 9.28 10.4 5.81 10.31 11.93 12 11.93 12 4.07 9.79 4.07 8.06 7.17"/></svg>